<svg width="960" height="298" viewBox="0 0 960 298" fill="none" xmlns="http://www.w3.org/2000/svg">
<path d="M17.5475 267.116C14.7418 267.116 12.0788 266.807 9.55839 266.189C7.08557 265.571 4.96941 264.738 3.20991 263.692L4.06588 254.134C6.20582 255.465 8.44087 256.512 10.771 257.272C13.1487 257.986 15.3362 258.342 17.3335 258.342C19.6161 258.342 21.4707 257.867 22.8973 256.916C24.324 255.965 25.0373 254.705 25.0373 253.135C25.0373 251.994 24.6806 251.114 23.9673 250.496C23.254 249.83 22.3267 249.26 21.1854 248.784C20.0441 248.308 18.7839 247.785 17.4048 247.215C15.8355 246.549 14.2187 245.859 12.5543 245.146C10.9375 244.433 9.41573 243.577 7.9891 242.578C6.61003 241.532 5.46873 240.2 4.5652 238.584C3.70923 236.967 3.28124 234.922 3.28124 232.449C3.28124 227.932 4.82675 224.365 7.91777 221.749C11.0088 219.086 15.3124 217.755 20.8287 217.755C25.0611 217.755 29.3409 218.611 33.6684 220.323L32.0991 229.739C30.3396 228.74 28.4374 227.955 26.3926 227.385C24.3953 226.814 22.4931 226.529 20.6861 226.529C18.451 226.529 16.7153 226.98 15.4789 227.884C14.2425 228.74 13.6243 229.905 13.6243 231.379C13.6243 232.758 14.1236 233.828 15.1222 234.589C16.1684 235.302 17.4762 235.992 19.0455 236.658C20.6147 237.323 22.3267 238.013 24.1813 238.726C26.0835 239.392 27.8668 240.272 29.5311 241.366C31.2431 242.412 32.6459 243.838 33.7397 245.645C34.8334 247.405 35.3803 249.688 35.3803 252.493C35.3803 257.106 33.811 260.696 30.6724 263.264C27.5814 265.832 23.2064 267.116 17.5475 267.116ZM55.6646 267.259C52.2407 267.259 49.5776 266.403 47.6755 264.691C45.8209 262.931 44.8936 260.459 44.8936 257.272V238.084H39.1871V229.453H44.8936V221.607C48.3175 221.036 51.6463 220.608 54.8799 220.323V229.453H64.153V238.084H54.8799V255.418C54.8799 257.463 56.0212 258.485 58.3038 258.485C59.6354 258.485 61.1571 258.176 62.869 257.558L65.0803 265.119C62.0368 266.545 58.8983 267.259 55.6646 267.259ZM87.4415 267.259C83.6848 267.259 80.4035 266.45 77.5978 264.834C74.7921 263.217 72.6046 260.958 71.0354 258.057C69.4661 255.156 68.6814 251.756 68.6814 247.857C68.6814 243.957 69.4661 240.557 71.0354 237.656C72.6046 234.756 74.7921 232.497 77.5978 230.88C80.4035 229.263 83.661 228.455 87.3702 228.455C91.127 228.455 94.3845 229.263 97.1426 230.88C99.9483 232.449 102.136 234.684 103.705 237.585C105.274 240.438 106.059 243.791 106.059 247.643C106.059 251.542 105.274 254.966 103.705 257.914C102.183 260.863 100.02 263.169 97.2139 264.834C94.4082 266.45 91.1508 267.259 87.4415 267.259ZM87.3702 258.556C89.9381 258.556 91.983 257.582 93.5047 255.632C95.074 253.635 95.8586 251.019 95.8586 247.785C95.8586 244.552 95.074 241.984 93.5047 240.082C91.983 238.132 89.9381 237.157 87.3702 237.157C84.8023 237.157 82.7337 238.132 81.1644 240.082C79.6427 241.984 78.8818 244.552 78.8818 247.785C78.8818 251.019 79.6427 253.635 81.1644 255.632C82.7337 257.582 84.8023 258.556 87.3702 258.556ZM113.728 266.189V229.453H123.786V235.445H124.357C125.593 233.258 126.877 231.546 128.208 230.309C129.588 229.025 131.371 228.383 133.558 228.383C134.414 228.383 135.128 228.478 135.698 228.669L134.628 239.511C134.105 239.368 133.606 239.249 133.13 239.154C132.655 239.059 132.155 239.012 131.632 239.012C129.873 239.012 128.47 239.535 127.424 240.581C126.378 241.58 125.165 242.935 123.786 244.647V266.189H113.728ZM151.379 267.259C147.623 267.259 144.603 265.666 142.32 262.48C140.085 259.246 138.968 254.823 138.968 249.212C138.968 242.459 140.68 237.323 144.104 233.804C147.528 230.238 152.449 228.455 158.869 228.455C162.483 228.455 166.716 229.025 171.566 230.167V266.189H162.008L162.222 260.34H161.936C159.464 264.952 155.945 267.259 151.379 267.259ZM153.519 258.485C155.089 258.485 156.587 257.653 158.013 255.988C159.44 254.324 160.724 252.279 161.865 249.854V237.87C161.104 237.633 160.32 237.466 159.511 237.371C158.703 237.276 157.966 237.228 157.3 237.228C151.546 237.228 148.669 241.08 148.669 248.784C148.669 251.78 149.097 254.158 149.953 255.917C150.809 257.629 151.998 258.485 153.519 258.485ZM192.369 282.381C190.657 282.381 188.708 282.262 186.52 282.024C184.38 281.787 182.193 281.359 179.958 280.74L181.884 271.895C183.833 272.466 185.759 272.942 187.661 273.322C189.564 273.702 191.442 273.893 193.297 273.893C195.769 273.893 197.648 273.488 198.932 272.68C200.263 271.919 201.191 270.706 201.714 269.042C202.237 267.378 202.546 265.214 202.641 262.551H202.427C199.716 265.69 196.245 267.259 192.013 267.259C187.828 267.259 184.547 265.69 182.169 262.551C179.839 259.365 178.674 254.966 178.674 249.355C178.674 242.554 180.433 237.371 183.952 233.804C187.471 230.238 192.464 228.455 198.932 228.455C200.881 228.455 202.998 228.621 205.28 228.954C207.563 229.239 209.917 229.643 212.342 230.167C212.39 233.828 212.413 237.514 212.413 241.223C212.461 244.932 212.485 248.618 212.485 252.279C212.485 253.944 212.485 255.608 212.485 257.272C212.485 258.937 212.461 260.601 212.413 262.266C212.318 269.018 210.63 274.059 207.349 277.388C204.068 280.717 199.074 282.381 192.369 282.381ZM194.652 258.485C196.174 258.485 197.576 257.938 198.86 256.844C200.192 255.703 201.381 254.158 202.427 252.208V237.87C200.858 237.442 199.336 237.228 197.862 237.228C194.818 237.228 192.536 238.203 191.014 240.153C189.492 242.103 188.731 244.932 188.731 248.641C188.731 251.732 189.231 254.158 190.229 255.917C191.276 257.629 192.75 258.485 194.652 258.485ZM238.959 267.259C233.062 267.259 228.402 265.547 224.978 262.123C221.554 258.699 219.842 253.944 219.842 247.857C219.842 243.862 220.58 240.414 222.054 237.514C223.528 234.613 225.596 232.378 228.26 230.809C230.97 229.239 234.132 228.455 237.747 228.455C243.073 228.455 247.162 230.167 250.016 233.59C252.869 237.014 254.295 241.96 254.295 248.427C254.295 248.855 254.295 249.283 254.295 249.711C254.295 250.092 254.272 250.472 254.224 250.853H229.971C230.923 255.988 234.323 258.556 240.172 258.556C241.979 258.556 243.81 258.342 245.664 257.914C247.567 257.439 249.231 256.821 250.658 256.06L252.298 264.12C248.351 266.213 243.905 267.259 238.959 267.259ZM229.9 243.292H244.666C244.523 241.247 243.81 239.63 242.526 238.441C241.242 237.205 239.53 236.586 237.39 236.586C235.345 236.586 233.657 237.181 232.325 238.37C231.041 239.559 230.233 241.199 229.9 243.292ZM299.496 267.473L286.87 232.663L283.874 266.189H274.673L279.167 218.682H292.006L304.133 252.779L315.902 218.682H328.742L333.093 266.189H323.82L320.539 232.806L307.984 266.688L299.496 267.473ZM351.72 267.259C347.963 267.259 344.944 265.666 342.661 262.48C340.426 259.246 339.308 254.823 339.308 249.212C339.308 242.459 341.02 237.323 344.444 233.804C347.868 230.238 352.79 228.455 359.21 228.455C362.824 228.455 367.056 229.025 371.907 230.167V266.189H362.348L362.562 260.34H362.277C359.804 264.952 356.285 267.259 351.72 267.259ZM353.86 258.485C355.429 258.485 356.927 257.653 358.354 255.988C359.78 254.324 361.064 252.279 362.206 249.854V237.87C361.445 237.633 360.66 237.466 359.852 237.371C359.043 237.276 358.306 237.228 357.64 237.228C351.886 237.228 349.009 241.08 349.009 248.784C349.009 251.78 349.437 254.158 350.293 255.917C351.149 257.629 352.338 258.485 353.86 258.485ZM381.633 266.189V229.453H391.477V235.802C392.999 233.234 394.758 231.379 396.756 230.238C398.8 229.049 401.131 228.455 403.746 228.455C407.693 228.455 410.784 229.643 413.019 232.021C415.254 234.351 416.372 237.609 416.372 241.794V266.189H406.314V243.363C406.314 241.413 405.838 239.915 404.887 238.869C403.936 237.823 402.652 237.3 401.036 237.3C399.086 237.3 397.255 238.037 395.543 239.511C393.879 240.938 392.595 242.721 391.691 244.861V266.189H381.633ZM436.287 267.259C432.53 267.259 429.51 265.666 427.227 262.48C424.992 259.246 423.875 254.823 423.875 249.212C423.875 242.459 425.587 237.323 429.011 233.804C432.435 230.238 437.357 228.455 443.776 228.455C447.39 228.455 451.623 229.025 456.473 230.167V266.189H446.915L447.129 260.34H446.844C444.371 264.952 440.852 267.259 436.287 267.259ZM438.426 258.485C439.996 258.485 441.494 257.653 442.92 255.988C444.347 254.324 445.631 252.279 446.772 249.854V237.87C446.011 237.633 445.227 237.466 444.418 237.371C443.61 237.276 442.873 237.228 442.207 237.228C436.453 237.228 433.576 241.08 433.576 248.784C433.576 251.78 434.004 254.158 434.86 255.917C435.716 257.629 436.905 258.485 438.426 258.485ZM477.276 282.381C475.564 282.381 473.615 282.262 471.427 282.024C469.287 281.787 467.1 281.359 464.865 280.74L466.791 271.895C468.74 272.466 470.666 272.942 472.569 273.322C474.471 273.702 476.349 273.893 478.204 273.893C480.677 273.893 482.555 273.488 483.839 272.68C485.17 271.919 486.098 270.706 486.621 269.042C487.144 267.378 487.453 265.214 487.548 262.551H487.334C484.624 265.69 481.152 267.259 476.92 267.259C472.735 267.259 469.454 265.69 467.076 262.551C464.746 259.365 463.581 254.966 463.581 249.355C463.581 242.554 465.34 237.371 468.859 233.804C472.378 230.238 477.372 228.455 483.839 228.455C485.789 228.455 487.905 228.621 490.187 228.954C492.47 229.239 494.824 229.643 497.249 230.167C497.297 233.828 497.32 237.514 497.32 241.223C497.368 244.932 497.392 248.618 497.392 252.279C497.392 253.944 497.392 255.608 497.392 257.272C497.392 258.937 497.368 260.601 497.32 262.266C497.225 269.018 495.537 274.059 492.256 277.388C488.975 280.717 483.982 282.381 477.276 282.381ZM479.559 258.485C481.081 258.485 482.484 257.938 483.768 256.844C485.099 255.703 486.288 254.158 487.334 252.208V237.87C485.765 237.442 484.243 237.228 482.769 237.228C479.725 237.228 477.443 238.203 475.921 240.153C474.399 242.103 473.638 244.932 473.638 248.641C473.638 251.732 474.138 254.158 475.136 255.917C476.183 257.629 477.657 258.485 479.559 258.485ZM523.866 267.259C517.97 267.259 513.309 265.547 509.885 262.123C506.461 258.699 504.75 253.944 504.75 247.857C504.75 243.862 505.487 240.414 506.961 237.514C508.435 234.613 510.504 232.378 513.167 230.809C515.877 229.239 519.04 228.455 522.654 228.455C527.98 228.455 532.069 230.167 534.923 233.59C537.776 237.014 539.203 241.96 539.203 248.427C539.203 248.855 539.203 249.283 539.203 249.711C539.203 250.092 539.179 250.472 539.131 250.853H514.879C515.83 255.988 519.23 258.556 525.079 258.556C526.886 258.556 528.717 258.342 530.571 257.914C532.474 257.439 534.138 256.821 535.565 256.06L537.205 264.12C533.258 266.213 528.812 267.259 523.866 267.259ZM514.807 243.292H529.573C529.43 241.247 528.717 239.63 527.433 238.441C526.149 237.205 524.437 236.586 522.297 236.586C520.252 236.586 518.564 237.181 517.232 238.37C515.949 239.559 515.14 241.199 514.807 243.292ZM546.726 266.189V229.453H556.57V235.16C559.471 230.69 563.394 228.455 568.34 228.455C571.145 228.455 573.523 229.12 575.473 230.452C577.47 231.783 578.92 233.638 579.824 236.016C581.488 233.4 583.343 231.498 585.388 230.309C587.48 229.073 589.858 228.455 592.521 228.455C596.468 228.455 599.535 229.643 601.723 232.021C603.958 234.351 605.075 237.609 605.075 241.794V266.189H595.018V243.363C595.018 241.413 594.542 239.915 593.591 238.869C592.687 237.823 591.451 237.3 589.882 237.3C587.884 237.3 586.054 238.108 584.389 239.725C582.772 241.342 581.56 243.41 580.751 245.931V266.189H570.694V243.363C570.694 241.461 570.218 239.986 569.267 238.94C568.316 237.847 567.056 237.3 565.486 237.3C563.774 237.3 562.134 237.965 560.565 239.297C558.995 240.581 557.735 242.412 556.784 244.789V266.189H546.726ZM631.699 267.259C625.802 267.259 621.142 265.547 617.718 262.123C614.294 258.699 612.582 253.944 612.582 247.857C612.582 243.862 613.319 240.414 614.794 237.514C616.268 234.613 618.336 232.378 620.999 230.809C623.71 229.239 626.872 228.455 630.487 228.455C635.813 228.455 639.902 230.167 642.756 233.59C645.609 237.014 647.035 241.96 647.035 248.427C647.035 248.855 647.035 249.283 647.035 249.711C647.035 250.092 647.012 250.472 646.964 250.853H622.711C623.663 255.988 627.063 258.556 632.912 258.556C634.719 258.556 636.55 258.342 638.404 257.914C640.306 257.439 641.971 256.821 643.397 256.06L645.038 264.12C641.091 266.213 636.645 267.259 631.699 267.259ZM622.64 243.292H637.406C637.263 241.247 636.55 239.63 635.266 238.441C633.982 237.205 632.27 236.586 630.13 236.586C628.085 236.586 626.397 237.181 625.065 238.37C623.781 239.559 622.973 241.199 622.64 243.292ZM654.559 266.189V229.453H664.403V235.802C665.925 233.234 667.684 231.379 669.681 230.238C671.726 229.049 674.056 228.455 676.672 228.455C680.619 228.455 683.71 229.643 685.945 232.021C688.18 234.351 689.297 237.609 689.297 241.794V266.189H679.24V243.363C679.24 241.413 678.764 239.915 677.813 238.869C676.862 237.823 675.578 237.3 673.961 237.3C672.012 237.3 670.181 238.037 668.469 239.511C666.804 240.938 665.52 242.721 664.617 244.861V266.189H654.559ZM711.021 267.259C707.597 267.259 704.934 266.403 703.032 264.691C701.177 262.931 700.25 260.459 700.25 257.272V238.084H694.543V229.453H700.25V221.607C703.673 221.036 707.002 220.608 710.236 220.323V229.453H719.509V238.084H710.236V255.418C710.236 257.463 711.377 258.485 713.66 258.485C714.991 258.485 716.513 258.176 718.225 257.558L720.436 265.119C717.393 266.545 714.254 267.259 711.021 267.259ZM742.199 266.189V218.682C743.245 218.635 744.434 218.611 745.766 218.611C747.145 218.611 748.571 218.611 750.046 218.611C751.52 218.611 752.946 218.611 754.325 218.611C755.704 218.611 756.917 218.635 757.963 218.682C762.814 218.777 766.642 220.085 769.448 222.605C772.301 225.078 773.727 228.573 773.727 233.091C773.727 236.325 772.99 239.154 771.516 241.58C770.09 244.005 768.092 245.883 765.524 247.215C763.004 248.546 760.079 249.212 756.751 249.212H752.114V266.189H742.199ZM752.114 240.795H756.323C758.653 240.795 760.46 240.129 761.744 238.798C763.075 237.466 763.741 235.659 763.741 233.376C763.741 229.192 761.435 227.099 756.822 227.099H752.114V240.795ZM777.609 266.189V257.558H784.1V222.677H777.966V214.117H794.158V257.558H800.649V266.189H777.609ZM819.102 267.187C815.202 267.187 812.135 265.999 809.9 263.621C807.665 261.196 806.548 257.938 806.548 253.849V229.453H816.605V252.208C816.605 254.158 817.081 255.679 818.032 256.773C818.983 257.819 820.267 258.342 821.884 258.342C823.548 258.342 825.118 257.819 826.592 256.773C828.066 255.727 829.302 254.324 830.301 252.565V229.453H840.359V266.189H830.301V261.338C829.065 263.003 827.567 264.406 825.807 265.547C824.048 266.641 821.813 267.187 819.102 267.187ZM861.518 282.381C859.806 282.381 857.856 282.262 855.669 282.024C853.529 281.787 851.341 281.359 849.106 280.74L851.032 271.895C852.982 272.466 854.908 272.942 856.81 273.322C858.712 273.702 860.591 273.893 862.445 273.893C864.918 273.893 866.796 273.488 868.08 272.68C869.412 271.919 870.339 270.706 870.862 269.042C871.385 267.378 871.695 265.214 871.79 262.551H871.576C868.865 265.69 865.394 267.259 861.161 267.259C856.976 267.259 853.695 265.69 851.318 262.551C848.987 259.365 847.822 254.966 847.822 249.355C847.822 242.554 849.582 237.371 853.101 233.804C856.62 230.238 861.613 228.455 868.08 228.455C870.03 228.455 872.146 228.621 874.429 228.954C876.711 229.239 879.065 229.643 881.491 230.167C881.538 233.828 881.562 237.514 881.562 241.223C881.61 244.932 881.633 248.618 881.633 252.279C881.633 253.944 881.633 255.608 881.633 257.272C881.633 258.937 881.61 260.601 881.562 262.266C881.467 269.018 879.779 274.059 876.497 277.388C873.216 280.717 868.223 282.381 861.518 282.381ZM863.801 258.485C865.322 258.485 866.725 257.938 868.009 256.844C869.341 255.703 870.529 254.158 871.576 252.208V237.87C870.006 237.442 868.485 237.228 867.01 237.228C863.967 237.228 861.684 238.203 860.163 240.153C858.641 242.103 857.88 244.932 857.88 248.641C857.88 251.732 858.379 254.158 859.378 255.917C860.424 257.629 861.898 258.485 863.801 258.485ZM895.054 223.39V214.117H906.539V223.39H895.054ZM889.49 266.189V257.558H896.338V238.084H889.49V229.453H906.396V257.558H912.53V266.189H889.49ZM919.195 266.189V229.453H929.039V235.802C930.561 233.234 932.32 231.379 934.318 230.238C936.362 229.049 938.693 228.455 941.308 228.455C945.255 228.455 948.346 229.643 950.581 232.021C952.816 234.351 953.934 237.609 953.934 241.794V266.189H943.876V243.363C943.876 241.413 943.4 239.915 942.449 238.869C941.498 237.823 940.214 237.3 938.597 237.3C936.648 237.3 934.817 238.037 933.105 239.511C931.441 240.938 930.157 242.721 929.253 244.861V266.189H919.195Z" fill="#EF8354"/>
<path d="M226.448 164.7H276.812V181H210.566V61.2554L226.448 61.0464V164.7Z" fill="#FDF2ED"/>
<path fill-rule="evenodd" clip-rule="evenodd" d="M293.921 174.351V63.6792C293.921 62.4885 294.886 61.5233 296.076 61.5233H378.002C379.193 61.5233 380.158 62.4885 380.158 63.6792V174.351C380.158 175.542 379.193 176.507 378.002 176.507H375.846V181.031C375.846 181.18 375.726 181.3 375.577 181.3H354.556C354.408 181.3 354.287 181.18 354.287 181.031V176.507H319.792V181.031C319.792 181.18 319.671 181.3 319.522 181.3H298.502C298.353 181.3 298.232 181.18 298.232 181.031V176.507H296.076C294.886 176.507 293.921 175.542 293.921 174.351ZM311.21 142.371H306.924C306.137 142.371 305.616 141.556 305.945 140.841L311.21 129.436H316.558C316.856 129.436 317.097 129.675 317.097 129.972V142.371V154.77C317.097 155.068 316.856 155.307 316.558 155.307H311.749C311.451 155.307 311.21 155.068 311.21 154.77V142.371ZM312.246 91.7065C311.651 91.7065 311.168 92.1891 311.168 92.7844V97.0963C311.168 97.6917 311.651 98.1743 312.246 98.1743H361.833C362.428 98.1743 362.911 97.6917 362.911 97.0963V92.7844C362.911 92.1891 362.428 91.7065 361.833 91.7065H312.246ZM311.168 105.72C311.168 105.125 311.651 104.642 312.246 104.642H361.833C362.428 104.642 362.911 105.125 362.911 105.72V110.032C362.911 110.627 362.428 111.11 361.833 111.11H312.246C311.651 111.11 311.168 110.627 311.168 110.032V105.72ZM312.246 78.7708C311.651 78.7708 311.168 79.2534 311.168 79.8488V84.1607C311.168 84.756 311.651 85.2386 312.246 85.2386H361.833C362.428 85.2386 362.911 84.756 362.911 84.1607V79.8488C362.911 79.2534 362.428 78.7708 361.833 78.7708H312.246Z" fill="#FDF2ED"/>
<path d="M448.028 76.7198H414.173V165.954H462.029V181H397.455V61.2554H463.701V95.3189H448.028V76.7198ZM570.698 181H546.039L516.991 127.502H513.856V181H497.974V61.2554H513.856V112.455L545.83 61.2554H568.608L528.902 117.889L570.698 181Z" fill="#FDF2ED"/>
<path fill-rule="evenodd" clip-rule="evenodd" d="M667.86 174.351V63.6792C667.86 62.4885 666.894 61.5233 665.704 61.5233H583.778C582.587 61.5233 581.622 62.4885 581.622 63.6792V174.351C581.622 175.542 582.587 176.507 583.778 176.507H585.934V181.031C585.934 181.18 586.054 181.3 586.203 181.3H607.224C607.373 181.3 607.493 181.18 607.493 181.031V176.507H641.988V181.031C641.988 181.18 642.109 181.3 642.258 181.3H663.278C663.427 181.3 663.548 181.18 663.548 181.031V176.507H665.704C666.894 176.507 667.86 175.542 667.86 174.351ZM650.571 142.371V129.972C650.571 129.675 650.329 129.436 650.032 129.436H645.222C644.925 129.436 644.683 129.675 644.683 129.972V142.371V154.77C644.683 155.068 644.925 155.307 645.222 155.307H650.571L655.835 143.901C656.165 143.187 655.643 142.371 654.856 142.371H650.571ZM649.534 91.7065C650.129 91.7065 650.612 92.1891 650.612 92.7844V97.0963C650.612 97.6917 650.129 98.1743 649.534 98.1743H599.947C599.352 98.1743 598.869 97.6917 598.869 97.0963V92.7844C598.869 92.1891 599.352 91.7065 599.947 91.7065H649.534ZM650.612 105.72C650.612 105.125 650.129 104.642 649.534 104.642H599.947C599.352 104.642 598.869 105.125 598.869 105.72V110.032C598.869 110.627 599.352 111.11 599.947 111.11H649.534C650.129 111.11 650.612 110.627 650.612 110.032V105.72ZM649.534 78.7708C650.129 78.7708 650.612 79.2534 650.612 79.8488V84.1607C650.612 84.756 650.129 85.2386 649.534 85.2386H599.947C599.352 85.2386 598.869 84.756 598.869 84.1607V79.8488C598.869 79.2534 599.352 78.7708 599.947 78.7708H649.534Z" fill="#FDF2ED"/>
<path d="M757.64 181H736.742L707.485 127.502H700.798L701.007 181H684.915V61.2554H746.982V127.502H728.592L757.64 181ZM730.264 112.455V76.0929H700.798V112.455H730.264Z" fill="#FDF2ED"/>
</svg>
