<svg width="128" height="128" viewBox="0 0 128 128" fill="none" xmlns="http://www.w3.org/2000/svg">
<rect width="128" height="128" rx="64" fill="url(#paint0_linear_71_102)"/>
<path fill-rule="evenodd" clip-rule="evenodd" d="M16 93.2156V34.1506C16 33.5151 16.5151 33 17.1506 33H60.8741C61.5095 33 62.0247 33.5151 62.0247 34.1506V93.2156C62.0247 93.8511 61.5095 94.3662 60.8741 94.3662H59.7234V96.7806C59.7234 96.86 59.659 96.9244 59.5796 96.9244H48.3611C48.2817 96.9244 48.2173 96.86 48.2173 96.7806V94.3662H29.8074V96.7806C29.8074 96.86 29.743 96.9244 29.6636 96.9244H18.4451C18.3656 96.9244 18.3012 96.86 18.3012 96.7806V94.3662H17.1506C16.5151 94.3662 16 93.8511 16 93.2156ZM22.4175 75.3317L25.2271 69.2444H28.0815C28.2403 69.2444 28.3691 69.372 28.3691 69.5309V76.1481V82.7654C28.3691 82.9242 28.2403 83.0518 28.0815 83.0518H25.5147C25.3558 83.0518 25.2271 82.9242 25.2271 82.7654V76.1481H22.9399C22.52 76.1481 22.2416 75.7129 22.4175 75.3317ZM25.7802 49.1086C25.4625 49.1086 25.2049 49.3662 25.2049 49.6839V51.9852C25.2049 52.3029 25.4625 52.5605 25.7802 52.5605H52.2444C52.5622 52.5605 52.8197 52.3029 52.8197 51.9852V49.6839C52.8197 49.3662 52.5622 49.1086 52.2444 49.1086H25.7802ZM25.2049 56.5876C25.2049 56.2699 25.4625 56.0123 25.7802 56.0123H52.2444C52.5622 56.0123 52.8197 56.2699 52.8197 56.5876V58.8889C52.8197 59.2066 52.5622 59.4642 52.2444 59.4642H25.7802C25.4625 59.4642 25.2049 59.2066 25.2049 58.8889V56.5876ZM25.7802 42.2049C25.4625 42.2049 25.2049 42.4625 25.2049 42.7802V45.0815C25.2049 45.3992 25.4625 45.6568 25.7802 45.6568H52.2444C52.5622 45.6568 52.8197 45.3992 52.8197 45.0815V42.7802C52.8197 42.4625 52.5622 42.2049 52.2444 42.2049H25.7802Z" fill="white"/>
<path fill-rule="evenodd" clip-rule="evenodd" d="M112.049 93.2156V34.1506C112.049 33.5151 111.534 33 110.899 33H67.1753C66.5398 33 66.0247 33.5151 66.0247 34.1506V93.2156C66.0247 93.8511 66.5398 94.3662 67.1753 94.3662H68.3259V96.7806C68.3259 96.86 68.3903 96.9244 68.4697 96.9244H79.6882C79.7677 96.9244 79.8321 96.86 79.8321 96.7806V94.3662H98.2419V96.7806C98.2419 96.86 98.3063 96.9244 98.3857 96.9244H109.604C109.684 96.9244 109.748 96.86 109.748 96.7806V94.3662H110.899C111.534 94.3662 112.049 93.8511 112.049 93.2156ZM105.632 76.9645L102.822 83.0518H99.9678C99.809 83.0518 99.6802 82.9242 99.6802 82.7654V76.1481V69.5309C99.6802 69.372 99.809 69.2444 99.9678 69.2444H102.535C102.693 69.2444 102.822 69.372 102.822 69.5309V76.1481H105.109C105.529 76.1481 105.808 76.5833 105.632 76.9645ZM102.269 49.1086C102.587 49.1086 102.844 49.3662 102.844 49.6839V51.9852C102.844 52.3029 102.587 52.5605 102.269 52.5605H75.8049C75.4872 52.5605 75.2296 52.3029 75.2296 51.9852V49.6839C75.2296 49.3662 75.4872 49.1086 75.8049 49.1086H102.269ZM102.844 56.5876C102.844 56.2699 102.587 56.0123 102.269 56.0123H75.8049C75.4872 56.0123 75.2296 56.2699 75.2296 56.5876V58.8889C75.2296 59.2066 75.4872 59.4642 75.8049 59.4642H102.269C102.587 59.4642 102.844 59.2066 102.844 58.8889V56.5876ZM102.269 42.2049C102.587 42.2049 102.844 42.4625 102.844 42.7802V45.0815C102.844 45.3992 102.587 45.6568 102.269 45.6568H75.8049C75.4872 45.6568 75.2296 45.3992 75.2296 45.0815V42.7802C75.2296 42.4625 75.4872 42.2049 75.8049 42.2049H102.269Z" fill="white"/>
<defs>
<linearGradient id="paint0_linear_71_102" x1="33" y1="4.27477e-07" x2="95" y2="128" gradientUnits="userSpaceOnUse">
<stop stop-color="#4F5D75"/>
<stop offset="1" stop-color="#2D3142"/>
</linearGradient>
</defs>
</svg>
