<svg width="128" height="128" viewBox="0 0 128 128" fill="none" xmlns="http://www.w3.org/2000/svg">
<rect width="128" height="128" rx="8" fill="url(#paint0_linear_66_136)"/>
<path fill-rule="evenodd" clip-rule="evenodd" d="M8 96.7778V28.3333C8 27.597 8.59695 27 9.33333 27H60C60.7364 27 61.3333 27.597 61.3333 28.3333V96.7778C61.3333 97.5142 60.7364 98.1111 60 98.1111H58.6667V100.909C58.6667 101.001 58.592 101.076 58.5 101.076H45.5C45.408 101.076 45.3333 101.001 45.3333 100.909V98.1111H24V100.909C24 101.001 23.9254 101.076 23.8333 101.076H10.8333C10.7413 101.076 10.6667 101.001 10.6667 100.909V98.1111H9.33333C8.59695 98.1111 8 97.5142 8 96.7778ZM18.6923 77H16.0419C15.5554 77 15.2328 76.4957 15.4366 76.054L18.6923 69H22C22.1841 69 22.3333 69.1479 22.3333 69.332V77V84.668C22.3333 84.8521 22.1841 85 22 85H19.0256C18.8415 85 18.6923 84.8521 18.6923 84.668V77ZM19.3333 45.6667C18.9651 45.6667 18.6667 45.9651 18.6667 46.3333V49C18.6667 49.3682 18.9651 49.6667 19.3333 49.6667H50C50.3682 49.6667 50.6667 49.3682 50.6667 49V46.3333C50.6667 45.9651 50.3682 45.6667 50 45.6667H19.3333ZM18.6667 54.3333C18.6667 53.9651 18.9651 53.6667 19.3333 53.6667H50C50.3682 53.6667 50.6667 53.9651 50.6667 54.3333V57C50.6667 57.3682 50.3682 57.6667 50 57.6667H19.3333C18.9651 57.6667 18.6667 57.3682 18.6667 57V54.3333ZM19.3333 37.6667C18.9651 37.6667 18.6667 37.9651 18.6667 38.3333V41C18.6667 41.3682 18.9651 41.6667 19.3333 41.6667H50C50.3682 41.6667 50.6667 41.3682 50.6667 41V38.3333C50.6667 37.9651 50.3682 37.6667 50 37.6667H19.3333Z" fill="white"/>
<path fill-rule="evenodd" clip-rule="evenodd" d="M120 96.7778V28.3333C120 27.597 119.403 27 118.667 27H68C67.2636 27 66.6667 27.597 66.6667 28.3333V96.7778C66.6667 97.5142 67.2636 98.1111 68 98.1111H69.3333V100.909C69.3333 101.001 69.408 101.076 69.5 101.076H82.5C82.592 101.076 82.6667 101.001 82.6667 100.909V98.1111H104V100.909C104 101.001 104.075 101.076 104.167 101.076H117.167C117.259 101.076 117.333 101.001 117.333 100.909V98.1111H118.667C119.403 98.1111 120 97.5142 120 96.7778ZM109.308 77V69.332C109.308 69.1479 109.158 69 108.974 69H106C105.816 69 105.667 69.1479 105.667 69.332V77V84.668C105.667 84.8521 105.816 85 106 85H109.308L112.563 77.946C112.767 77.5043 112.445 77 111.958 77H109.308ZM108.667 45.6667C109.035 45.6667 109.333 45.9651 109.333 46.3333V49C109.333 49.3682 109.035 49.6667 108.667 49.6667H78C77.6318 49.6667 77.3333 49.3682 77.3333 49V46.3333C77.3333 45.9651 77.6318 45.6667 78 45.6667H108.667ZM109.333 54.3333C109.333 53.9651 109.035 53.6667 108.667 53.6667H78C77.6318 53.6667 77.3333 53.9651 77.3333 54.3333V57C77.3333 57.3682 77.6318 57.6667 78 57.6667H108.667C109.035 57.6667 109.333 57.3682 109.333 57V54.3333ZM108.667 37.6667C109.035 37.6667 109.333 37.9651 109.333 38.3333V41C109.333 41.3682 109.035 41.6667 108.667 41.6667H78C77.6318 41.6667 77.3333 41.3682 77.3333 41V38.3333C77.3333 37.9651 77.6318 37.6667 78 37.6667H108.667Z" fill="white"/>
<defs>
<linearGradient id="paint0_linear_66_136" x1="33" y1="4.27477e-07" x2="95" y2="128" gradientUnits="userSpaceOnUse">
<stop stop-color="#4F5D75"/>
<stop offset="1" stop-color="#2D3142"/>
</linearGradient>
</defs>
</svg>
